<svg xmlns="http://www.w3.org/2000/svg" xmlns:xlink="http://www.w3.org/1999/xlink" width="744" zoomAndPan="magnify" viewBox="0 0 558 300.749988" height="401" preserveAspectRatio="xMidYMid meet" version="1.0"><defs><g/></defs><g fill="#000000" fill-opacity="1"><g transform="translate(107.646078, 193.555397)"><g><path d="M 117.296875 -41.203125 C 99.0625 -23.421875 75.625 -5.1875 48.90625 -5.1875 C 37.734375 -5.1875 30.34375 -8.8125 23.90625 -17.921875 C 28.78125 -16.984375 33.484375 -16.359375 38.515625 -16.359375 C 58.65625 -16.359375 76.265625 -24.0625 92.140625 -36.15625 C 105.1875 -46.234375 118.71875 -60.84375 118.71875 -78.453125 C 118.71875 -92.921875 104.40625 -97.640625 92.296875 -97.640625 C 79.71875 -97.640625 69.03125 -94.03125 57.859375 -88.359375 C 43.234375 -86.953125 30.5 -84.75 18.390625 -75.9375 C 7.859375 -68.234375 0.46875 -57.078125 0.46875 -43.71875 C 0.46875 -31.453125 9.75 -22.640625 20.59375 -18.703125 C 28.78125 -4.875 38.671875 0.15625 54.5625 0.15625 C 68.71875 0.15625 81.453125 -4.25 93.875 -11 C 108.015625 -18.703125 119.34375 -29.71875 130.34375 -41.203125 L 146.859375 -41.203125 C 141.828125 -32.546875 133.171875 -17.140625 133.171875 -7.078125 C 133.171875 -3.453125 135.375 0 139.3125 0 C 146.703125 0 162.421875 -15.5625 167.296875 -20.90625 C 168.234375 -21.859375 172.796875 -26.890625 172.796875 -28.296875 C 172.796875 -28.453125 172.640625 -28.78125 172.484375 -28.78125 C 171.390625 -28.140625 165.5625 -22.015625 164.46875 -20.90625 C 160.84375 -17.296875 148.109375 -4.25 142.921875 -4.25 C 141.515625 -4.25 140.875 -5.8125 140.875 -6.921875 C 140.875 -13.671875 163.046875 -47.484375 167.140625 -53.609375 C 172.171875 -61.171875 177.515625 -68.546875 182.859375 -75.9375 C 189 -84.75 195.125 -93.390625 201.734375 -101.890625 C 202.984375 -103.453125 205.34375 -106.609375 205.34375 -108.8125 C 205.34375 -111.328125 203.46875 -111.796875 201.421875 -111.796875 C 193.078125 -111.796875 176.890625 -96.703125 171.078125 -91.515625 C 158.8125 -80.5 146.859375 -69.03125 134.75 -57.703125 C 129.875 -52.984375 124.84375 -48.265625 119.65625 -43.71875 L 105.65625 -43.71875 C 104.71875 -43.71875 103.453125 -43.546875 103.453125 -42.296875 C 103.453125 -41.359375 105.03125 -41.203125 105.65625 -41.203125 Z M 132.546875 -43.71875 C 143.078125 -55.1875 153.453125 -66.828125 164 -78.140625 C 169.5 -84.28125 174.84375 -90.40625 180.8125 -96.0625 C 184.75 -99.84375 194.65625 -108.8125 200.3125 -108.8125 C 200.953125 -108.8125 201.421875 -108.8125 201.421875 -108.015625 C 201.421875 -107.078125 191.359375 -96.703125 190.09375 -95.28125 C 175.15625 -78.9375 161.015625 -61.796875 148.109375 -43.71875 Z M 116.359375 -78.140625 C 116.359375 -73.75 114.9375 -69.1875 113.203125 -65.09375 C 106.296875 -48.90625 91.828125 -36.953125 76.578125 -28.78125 C 66.03125 -23.109375 52.359375 -18.703125 40.40625 -18.703125 C 34.28125 -18.703125 28.453125 -19.5 22.484375 -20.90625 C 21.390625 -24.53125 20.75 -27.203125 20.75 -31.125 C 20.75 -53.609375 39.46875 -75 57.859375 -85.84375 C 64.46875 -85.6875 71.859375 -85.0625 78.296875 -83.015625 C 79.875 -82.546875 83.484375 -80.8125 85.0625 -80.8125 C 85.53125 -80.8125 85.84375 -81.140625 85.84375 -81.609375 C 85.84375 -85.53125 66.671875 -88.046875 63.203125 -88.359375 C 72.953125 -92.765625 82.546875 -95.59375 93.390625 -95.59375 C 104.25 -95.59375 116.359375 -90.71875 116.359375 -78.140625 Z M 51.890625 -85.21875 C 35.0625 -73.421875 18.546875 -51.890625 18.546875 -30.5 C 18.546875 -27.515625 18.875 -24.6875 19.65625 -21.703125 C 10.375 -25.78125 2.515625 -32.859375 2.515625 -43.71875 C 2.515625 -55.1875 10.6875 -67.609375 19.8125 -74.0625 C 29.09375 -80.65625 40.5625 -84.28125 51.890625 -85.21875 Z M 51.890625 -85.21875 "/></g></g></g><g fill="#000000" fill-opacity="1"><g transform="translate(279.503512, 193.555397)"><g><path d="M -9.28125 -1.265625 L -0.46875 -1.734375 C 8.328125 -11.15625 15.40625 -22.484375 25.46875 -30.8125 C 27.984375 -32.859375 35.375 -39.46875 39 -39.46875 C 39.9375 -39.46875 40.71875 -38.671875 40.71875 -37.734375 C 40.71875 -32.703125 21.0625 -15.25 21.0625 -6.765625 C 21.0625 -3.453125 24.0625 -0.46875 27.359375 -0.46875 C 38.359375 -0.46875 53.140625 -17.765625 60.375 -25.3125 C 61 -25.9375 62.734375 -27.515625 62.734375 -28.296875 C 62.734375 -28.609375 62.578125 -29.25 62.109375 -29.25 C 60.6875 -29.25 38.84375 -3.453125 30.03125 -3.453125 C 28.453125 -3.453125 27.828125 -4.40625 27.828125 -5.8125 C 27.828125 -13.203125 46.703125 -28.140625 46.703125 -36.953125 C 46.703125 -39.9375 44.34375 -41.984375 41.515625 -41.984375 C 34.4375 -41.984375 26.734375 -34.75 21.546875 -30.5 C 22.484375 -32.703125 23.578125 -34.90625 23.578125 -37.265625 C 23.578125 -40.40625 21.546875 -42.765625 18.390625 -42.765625 C 13.515625 -42.765625 11.953125 -40.71875 8.640625 -37.421875 C 6.609375 -35.375 4.40625 -33.171875 2.359375 -31.125 C 1.890625 -30.65625 -1.09375 -27.828125 -1.09375 -27.203125 C -1.09375 -26.890625 -0.9375 -26.421875 -0.46875 -26.421875 C 1.578125 -26.421875 11.953125 -39.78125 16.359375 -39.78125 C 17.609375 -39.78125 18.234375 -38.671875 18.234375 -37.578125 C 18.234375 -34.28125 10.0625 -24.84375 8.171875 -22.484375 Z M -9.28125 -1.265625 "/></g></g></g><g fill="#000000" fill-opacity="1"><g transform="translate(340.667789, 193.555397)"><g><path d="M -9.28125 -1.265625 L -0.46875 -1.734375 C 8.328125 -11.15625 15.40625 -22.484375 25.46875 -30.8125 C 27.984375 -32.859375 35.375 -39.46875 39 -39.46875 C 39.9375 -39.46875 40.71875 -38.671875 40.71875 -37.734375 C 40.71875 -32.703125 21.0625 -15.25 21.0625 -6.765625 C 21.0625 -3.453125 24.0625 -0.46875 27.359375 -0.46875 C 38.359375 -0.46875 53.140625 -17.765625 60.375 -25.3125 C 61 -25.9375 62.734375 -27.515625 62.734375 -28.296875 C 62.734375 -28.609375 62.578125 -29.25 62.109375 -29.25 C 60.6875 -29.25 38.84375 -3.453125 30.03125 -3.453125 C 28.453125 -3.453125 27.828125 -4.40625 27.828125 -5.8125 C 27.828125 -13.203125 46.703125 -28.140625 46.703125 -36.953125 C 46.703125 -39.9375 44.34375 -41.984375 41.515625 -41.984375 C 34.4375 -41.984375 26.734375 -34.75 21.546875 -30.5 C 22.484375 -32.703125 23.578125 -34.90625 23.578125 -37.265625 C 23.578125 -40.40625 21.546875 -42.765625 18.390625 -42.765625 C 13.515625 -42.765625 11.953125 -40.71875 8.640625 -37.421875 C 6.609375 -35.375 4.40625 -33.171875 2.359375 -31.125 C 1.890625 -30.65625 -1.09375 -27.828125 -1.09375 -27.203125 C -1.09375 -26.890625 -0.9375 -26.421875 -0.46875 -26.421875 C 1.578125 -26.421875 11.953125 -39.78125 16.359375 -39.78125 C 17.609375 -39.78125 18.234375 -38.671875 18.234375 -37.578125 C 18.234375 -34.28125 10.0625 -24.84375 8.171875 -22.484375 Z M -9.28125 -1.265625 "/></g></g></g><g fill="#000000" fill-opacity="1"><g transform="translate(401.832065, 193.555397)"><g><path d="M 41.984375 -27.984375 C 41.984375 -28.296875 41.671875 -28.609375 41.359375 -28.609375 C 40.25 -28.609375 37.578125 -25.625 36.796875 -24.84375 C 30.03125 -18.078125 11.953125 -2.671875 1.734375 -2.671875 C -1.734375 -2.671875 -4.09375 -5.03125 -4.09375 -8.484375 C -4.09375 -10.84375 -2.984375 -12.734375 -1.734375 -14.625 C 7.234375 -17.609375 29.09375 -25.15625 29.09375 -36.953125 C 29.09375 -40.25 25.9375 -41.671875 23.109375 -41.671875 C 15.875 -41.671875 4.5625 -33.96875 0 -28.9375 C -4.40625 -24.21875 -9.59375 -17.765625 -9.59375 -11 C -9.59375 -5.03125 -4.5625 0 1.421875 0 C 13.515625 0 34.75 -19.34375 41.984375 -27.984375 Z M 25.9375 -37.421875 C 25.9375 -33.328125 21.0625 -28.609375 18.234375 -26.265625 C 12.890625 -21.859375 5.96875 -19.5 -0.3125 -17.140625 C 3.453125 -22.953125 15.5625 -39.78125 23.265625 -39.78125 C 24.6875 -39.78125 25.9375 -39 25.9375 -37.421875 Z M 25.9375 -37.421875 "/></g></g></g><g fill="#000000" fill-opacity="1"><g transform="translate(62.704864, 269.7902)"><g><path d="M 9.296875 -11.578125 L 10.25 -11.46875 C 10.84375 -11.320312 11.210938 -11.25 11.359375 -11.25 C 11.617188 -11.25 11.757812 -11.164062 11.78125 -11 C 11.800781 -10.832031 11.753906 -10.316406 11.640625 -9.453125 C 11.378906 -7.742188 11.035156 -5.726562 10.609375 -3.40625 C 10.179688 -1.09375 9.925781 0.113281 9.84375 0.21875 C 9.8125 0.257812 9.273438 0.207031 8.234375 0.0625 C 7.296875 -0.09375 6.78125 -0.21875 6.6875 -0.3125 C 6.59375 -0.40625 6.640625 -0.75 6.828125 -1.34375 C 7.128906 -2.195312 7.53125 -3.6875 8.03125 -5.8125 C 8.53125 -7.945312 8.875 -9.535156 9.0625 -10.578125 Z M 14.546875 -12.03125 C 15.066406 -12.101562 15.476562 -12.160156 15.78125 -12.203125 C 15.96875 -12.203125 16.097656 -11.882812 16.171875 -11.25 C 16.171875 -10.945312 16.253906 -10.265625 16.421875 -9.203125 C 16.585938 -8.140625 16.671875 -7.40625 16.671875 -7 C 16.671875 -6.550781 16.710938 -6.007812 16.796875 -5.375 C 16.867188 -4.738281 16.90625 -4.125 16.90625 -3.53125 L 16.84375 -2.625 L 15.328125 -2.40625 C 14.285156 -2.257812 13.75 -2.203125 13.71875 -2.234375 C 13.675781 -2.234375 13.65625 -3 13.65625 -4.53125 C 13.613281 -6.0625 13.554688 -7.628906 13.484375 -9.234375 C 13.410156 -10.953125 13.394531 -11.8125 13.4375 -11.8125 C 13.4375 -11.84375 13.804688 -11.914062 14.546875 -12.03125 Z M 18.53125 -13.046875 C 19.164062 -13.378906 19.519531 -13.546875 19.59375 -13.546875 C 19.695312 -13.546875 20.125 -12.890625 20.875 -11.578125 C 21.625 -10.273438 22.316406 -8.972656 22.953125 -7.671875 C 23.242188 -7.109375 23.40625 -6.769531 23.4375 -6.65625 C 23.476562 -6.550781 23.460938 -6.441406 23.390625 -6.328125 C 23.203125 -6.210938 22.679688 -5.945312 21.828125 -5.53125 C 20.972656 -5.125 20.523438 -4.941406 20.484375 -4.984375 C 20.410156 -5.015625 20.300781 -5.347656 20.15625 -5.984375 C 19.707031 -7.328125 18.992188 -9.140625 18.015625 -11.421875 L 17.578125 -12.59375 Z M 39.5625 -31.171875 C 39.789062 -31.398438 39.988281 -31.519531 40.15625 -31.53125 C 40.320312 -31.550781 40.613281 -31.523438 41.03125 -31.453125 C 42 -31.265625 44.007812 -30.929688 47.0625 -30.453125 C 47.289062 -30.453125 47.421875 -30.410156 47.453125 -30.328125 C 47.492188 -30.253906 47.382812 -29.898438 47.125 -29.265625 L 46.734375 -28.3125 L 46.125 -28.265625 C 45.75 -28.191406 44.535156 -28.132812 42.484375 -28.09375 C 40.460938 -28.0625 39.453125 -28.023438 39.453125 -27.984375 C 39.421875 -27.984375 39.367188 -27.703125 39.296875 -27.140625 C 39.023438 -25.242188 38.59375 -23.203125 38 -21.015625 C 37.40625 -18.828125 36.769531 -17.007812 36.09375 -15.5625 C 35.90625 -15.144531 35.8125 -14.914062 35.8125 -14.875 C 35.8125 -14.84375 35.515625 -14.304688 34.921875 -13.265625 C 34.359375 -12.179688 34.078125 -11.617188 34.078125 -11.578125 C 34.078125 -11.472656 34.640625 -10.65625 35.765625 -9.125 C 37.222656 -7.21875 38.804688 -5.367188 40.515625 -3.578125 L 41.640625 -2.34375 L 44.609375 -1.625 C 46.210938 -1.175781 47.441406 -0.835938 48.296875 -0.609375 L 49.03125 -0.390625 L 48.96875 0 C 48.9375 0.144531 48.863281 0.519531 48.75 1.125 L 48.578125 1.90625 L 48.1875 1.84375 C 46.132812 1.46875 43.46875 0.910156 40.1875 0.171875 C 39.882812 0.128906 39.660156 0.0625 39.515625 -0.03125 C 39.367188 -0.125 39.109375 -0.410156 38.734375 -0.890625 C 36.566406 -3.316406 34.738281 -5.578125 33.25 -7.671875 C 32.644531 -8.523438 32.328125 -8.953125 32.296875 -8.953125 C 32.253906 -8.953125 32.101562 -8.765625 31.84375 -8.390625 C 31.019531 -7.273438 29.925781 -5.988281 28.5625 -4.53125 C 27.207031 -3.070312 25.859375 -1.804688 24.515625 -0.734375 C 23.878906 -0.203125 23.539062 0.0625 23.5 0.0625 C 23.394531 0.164062 22.988281 0.519531 22.28125 1.125 L 21.15625 2.015625 L 20.03125 1.125 C 19.25 0.488281 18.859375 0.132812 18.859375 0.0625 C 18.859375 0.0195312 19.234375 -0.28125 19.984375 -0.84375 C 22.859375 -3.082031 25.300781 -5.28125 27.3125 -7.4375 C 28.019531 -8.226562 28.753906 -9.109375 29.515625 -10.078125 C 30.285156 -11.046875 30.671875 -11.566406 30.671875 -11.640625 C 30.671875 -11.710938 30.503906 -12.03125 30.171875 -12.59375 C 29.566406 -13.53125 28.519531 -15.238281 27.03125 -17.71875 C 25.539062 -20.195312 24.796875 -21.492188 24.796875 -21.609375 C 24.796875 -21.640625 25.160156 -21.890625 25.890625 -22.359375 C 26.617188 -22.828125 27.019531 -23.0625 27.09375 -23.0625 C 27.164062 -23.0625 27.390625 -22.6875 27.765625 -21.9375 C 28.398438 -20.820312 29.296875 -19.300781 30.453125 -17.375 C 31.609375 -15.457031 32.203125 -14.5 32.234375 -14.5 C 32.304688 -14.5 32.550781 -14.890625 32.96875 -15.671875 C 34.34375 -18.472656 35.382812 -21.660156 36.09375 -25.234375 C 36.320312 -26.691406 36.398438 -27.421875 36.328125 -27.421875 C 35.910156 -27.421875 32.796875 -26.769531 26.984375 -25.46875 C 24.367188 -24.863281 22.984375 -24.5625 22.828125 -24.5625 C 22.753906 -24.5625 22.445312 -24.960938 21.90625 -25.765625 C 21.363281 -26.578125 21.113281 -27 21.15625 -27.03125 C 21.195312 -27.03125 21.832031 -27.179688 23.0625 -27.484375 C 24.03125 -27.671875 24.890625 -27.835938 25.640625 -27.984375 C 28.097656 -28.546875 31.675781 -29.289062 36.375 -30.21875 C 38.207031 -30.632812 39.269531 -30.953125 39.5625 -31.171875 Z M 14.15625 -40.1875 L 14.78125 -39.90625 C 15.863281 -39.414062 16.46875 -39.132812 16.59375 -39.0625 C 16.726562 -38.988281 16.773438 -38.859375 16.734375 -38.671875 C 16.660156 -38.335938 16.304688 -37.347656 15.671875 -35.703125 C 15.035156 -34.066406 14.492188 -32.78125 14.046875 -31.84375 C 13.972656 -31.65625 13.769531 -31.191406 13.4375 -30.453125 C 13.207031 -29.921875 12.851562 -29.132812 12.375 -28.09375 C 11.882812 -27.195312 11.65625 -26.71875 11.6875 -26.65625 C 11.726562 -26.601562 12.40625 -26.800781 13.71875 -27.25 L 15.734375 -27.921875 L 16.625 -29.71875 C 17.257812 -30.914062 17.6875 -31.832031 17.90625 -32.46875 C 18.207031 -33.09375 18.394531 -33.40625 18.46875 -33.40625 C 18.539062 -33.40625 18.765625 -33.257812 19.140625 -32.96875 C 19.472656 -32.707031 19.753906 -32.539062 19.984375 -32.46875 C 20.171875 -32.28125 20.335938 -32.128906 20.484375 -32.015625 L 20.765625 -31.84375 L 19.875 -29.890625 C 18.976562 -28.128906 17.753906 -25.894531 16.203125 -23.1875 C 14.648438 -20.488281 13.445312 -18.46875 12.59375 -17.125 C 12.257812 -16.644531 12.097656 -16.394531 12.109375 -16.375 C 12.128906 -16.351562 12.941406 -16.601562 14.546875 -17.125 C 16.148438 -17.644531 17.328125 -18.035156 18.078125 -18.296875 C 18.296875 -18.367188 18.40625 -18.441406 18.40625 -18.515625 C 18.40625 -18.597656 18.253906 -18.984375 17.953125 -19.671875 C 17.660156 -20.359375 17.40625 -20.875 17.1875 -21.21875 C 17 -21.582031 16.921875 -21.765625 16.953125 -21.765625 C 16.953125 -21.804688 17.328125 -22.015625 18.078125 -22.390625 L 19.203125 -22.953125 L 21.328125 -18.640625 C 22.742188 -15.765625 23.453125 -14.253906 23.453125 -14.109375 C 23.484375 -14.035156 23.40625 -13.953125 23.21875 -13.859375 C 23.039062 -13.765625 22.6875 -13.585938 22.15625 -13.328125 L 20.765625 -12.65625 L 20.484375 -13.546875 C 19.921875 -15.222656 19.566406 -16.0625 19.421875 -16.0625 C 19.378906 -16.0625 17.738281 -15.460938 14.5 -14.265625 C 11.0625 -13.035156 8.929688 -12.273438 8.109375 -11.984375 L 7.390625 -11.75 L 6.9375 -12.921875 C 6.601562 -13.671875 6.398438 -14.082031 6.328125 -14.15625 C 6.253906 -14.269531 6.347656 -14.382812 6.609375 -14.5 C 6.710938 -14.5 6.914062 -14.550781 7.21875 -14.65625 L 8.109375 -15 L 9.125 -16.625 C 9.789062 -17.738281 10.503906 -18.929688 11.265625 -20.203125 C 12.035156 -21.472656 12.660156 -22.535156 13.140625 -23.390625 C 13.628906 -24.253906 13.859375 -24.6875 13.828125 -24.6875 C 13.710938 -24.6875 12.238281 -24.125 9.40625 -23 C 8.019531 -22.4375 7.3125 -22.195312 7.28125 -22.28125 C 7.195312 -22.351562 7.046875 -22.796875 6.828125 -23.609375 C 6.609375 -24.429688 6.535156 -24.863281 6.609375 -24.90625 C 6.640625 -24.945312 6.84375 -25.039062 7.21875 -25.1875 C 7.59375 -25.300781 7.851562 -25.429688 8 -25.578125 C 8.300781 -25.910156 9.046875 -27.445312 10.234375 -30.1875 C 11.429688 -32.9375 12.40625 -35.28125 13.15625 -37.21875 C 13.226562 -37.550781 13.335938 -37.910156 13.484375 -38.296875 C 13.640625 -38.691406 13.765625 -39.007812 13.859375 -39.25 C 13.953125 -39.5 14 -39.644531 14 -39.6875 Z M 27.765625 -39.84375 C 28.285156 -40.21875 28.5625 -40.40625 28.59375 -40.40625 C 28.75 -40.40625 30.488281 -38.503906 33.8125 -34.703125 L 34.703125 -33.53125 L 33.359375 -32.578125 C 32.460938 -31.972656 31.984375 -31.671875 31.921875 -31.671875 C 31.867188 -31.671875 31.507812 -32.175781 30.84375 -33.1875 C 30.09375 -34.269531 29.328125 -35.351562 28.546875 -36.4375 C 27.273438 -38.257812 26.695312 -39.210938 26.8125 -39.296875 C 26.957031 -39.367188 27.273438 -39.550781 27.765625 -39.84375 Z M 27.765625 -39.84375 "/></g></g></g><g fill="#000000" fill-opacity="1"><g transform="translate(113.066587, 269.7902)"><g><path d="M 8.671875 -12.375 C 8.785156 -12.375 9.195312 -12.375 9.90625 -12.375 L 11.03125 -12.375 L 10.96875 -11.53125 C 10.925781 -10.96875 10.890625 -10.257812 10.859375 -9.40625 C 10.742188 -6.90625 10.5 -4.421875 10.125 -1.953125 C 10.050781 -1.503906 9.992188 -1.242188 9.953125 -1.171875 C 9.921875 -1.097656 9.847656 -1.0625 9.734375 -1.0625 C 9.472656 -1.0625 8.941406 -1.097656 8.140625 -1.171875 C 7.335938 -1.242188 6.925781 -1.300781 6.90625 -1.34375 C 6.894531 -1.382812 6.976562 -1.90625 7.15625 -2.90625 C 7.6875 -5.96875 8.0625 -8.546875 8.28125 -10.640625 C 8.394531 -11.796875 8.523438 -12.375 8.671875 -12.375 Z M 12.921875 -12.921875 C 13.816406 -12.960938 14.335938 -12.972656 14.484375 -12.953125 C 14.640625 -12.929688 14.738281 -12.867188 14.78125 -12.765625 C 14.882812 -12.203125 15.019531 -11.179688 15.1875 -9.703125 C 15.363281 -8.234375 15.5 -6.863281 15.59375 -5.59375 C 15.6875 -4.320312 15.703125 -3.6875 15.640625 -3.6875 C 15.585938 -3.6875 15.160156 -3.613281 14.359375 -3.46875 C 13.554688 -3.320312 13.097656 -3.25 12.984375 -3.25 C 12.867188 -3.25 12.773438 -4.050781 12.703125 -5.65625 C 12.628906 -8.9375 12.519531 -11.175781 12.375 -12.375 L 12.3125 -12.875 Z M 37.390625 -23.171875 L 37.828125 -22.953125 C 38.984375 -22.242188 39.5625 -21.832031 39.5625 -21.71875 C 39.5625 -21.644531 39.03125 -20.84375 37.96875 -19.3125 C 36.90625 -17.78125 36.207031 -16.8125 35.875 -16.40625 C 35.832031 -16.40625 35.515625 -16.585938 34.921875 -16.953125 C 34.328125 -17.328125 33.972656 -17.550781 33.859375 -17.625 C 33.859375 -17.664062 34.117188 -18.078125 34.640625 -18.859375 C 35.609375 -20.273438 36.394531 -21.507812 37 -22.5625 Z M 13.484375 -40.515625 C 13.523438 -40.597656 13.5625 -40.640625 13.59375 -40.640625 C 13.632812 -40.640625 14.054688 -40.421875 14.859375 -39.984375 C 15.660156 -39.554688 16.0625 -39.328125 16.0625 -39.296875 C 16.0625 -39.179688 15.578125 -37.878906 14.609375 -35.390625 C 13.640625 -32.910156 12.707031 -30.6875 11.8125 -28.71875 C 11.4375 -28.007812 11.25 -27.613281 11.25 -27.53125 C 11.25 -27.457031 11.882812 -27.628906 13.15625 -28.046875 L 14.4375 -28.4375 L 14.78125 -29.21875 C 15.039062 -29.695312 15.445312 -30.554688 16 -31.796875 C 16.5625 -32.984375 16.859375 -33.601562 16.890625 -33.65625 C 16.929688 -33.71875 17.046875 -33.675781 17.234375 -33.53125 C 17.421875 -33.414062 17.8125 -33.191406 18.40625 -32.859375 C 18.9375 -32.484375 19.21875 -32.273438 19.25 -32.234375 C 19.289062 -32.160156 18.59375 -30.707031 17.15625 -27.875 C 15.71875 -25.039062 14.476562 -22.648438 13.4375 -20.703125 C 12.195312 -18.429688 11.597656 -17.273438 11.640625 -17.234375 C 11.640625 -17.234375 12.488281 -17.550781 14.1875 -18.1875 C 15.882812 -18.820312 16.753906 -19.160156 16.796875 -19.203125 C 16.867188 -19.234375 16.660156 -19.753906 16.171875 -20.765625 L 15.5625 -22.328125 C 15.59375 -22.367188 15.773438 -22.453125 16.109375 -22.578125 C 16.453125 -22.710938 16.769531 -22.84375 17.0625 -22.96875 C 17.363281 -23.101562 17.515625 -23.171875 17.515625 -23.171875 C 17.585938 -23.097656 18.285156 -21.6875 19.609375 -18.9375 C 20.941406 -16.195312 21.609375 -14.8125 21.609375 -14.78125 C 21.609375 -14.738281 21.164062 -14.503906 20.28125 -14.078125 C 19.40625 -13.648438 18.96875 -13.4375 18.96875 -13.4375 C 18.96875 -13.46875 18.78125 -13.953125 18.40625 -14.890625 C 18.070312 -15.859375 17.867188 -16.394531 17.796875 -16.5 C 17.722656 -16.613281 17.144531 -16.429688 16.0625 -15.953125 C 10.3125 -13.671875 7.421875 -12.585938 7.390625 -12.703125 C 7.347656 -12.816406 7.160156 -13.285156 6.828125 -14.109375 L 6.375 -15.328125 L 6.765625 -15.5 C 7.023438 -15.65625 7.210938 -15.734375 7.328125 -15.734375 C 7.484375 -15.734375 7.632812 -15.863281 7.78125 -16.125 C 8 -16.414062 8.535156 -17.335938 9.390625 -18.890625 C 10.253906 -20.441406 11.066406 -21.929688 11.828125 -23.359375 C 12.597656 -24.796875 12.945312 -25.535156 12.875 -25.578125 C 12.800781 -25.578125 11.867188 -25.164062 10.078125 -24.34375 C 8.285156 -23.5625 7.359375 -23.195312 7.296875 -23.25 C 7.242188 -23.3125 7.085938 -23.722656 6.828125 -24.484375 C 6.566406 -25.253906 6.4375 -25.679688 6.4375 -25.765625 C 6.4375 -25.859375 6.640625 -25.960938 7.046875 -26.078125 C 7.421875 -26.234375 7.664062 -26.363281 7.78125 -26.46875 C 8.257812 -27.21875 9.171875 -29.269531 10.515625 -32.625 C 11.410156 -34.789062 12.398438 -37.421875 13.484375 -40.515625 Z M 39.90625 -10.90625 C 39.90625 -11.539062 39.90625 -12.054688 39.90625 -12.453125 C 39.90625 -12.847656 39.894531 -13.175781 39.875 -13.4375 C 39.851562 -13.695312 39.832031 -13.875 39.8125 -13.96875 C 39.800781 -14.0625 39.796875 -14.109375 39.796875 -14.109375 C 39.609375 -14.066406 38.65625 -13.867188 36.9375 -13.515625 C 35.21875 -13.160156 34.175781 -12.945312 33.8125 -12.875 L 33.40625 -12.765625 L 33.40625 -11.53125 C 33.40625 -10.675781 33.445312 -10.226562 33.53125 -10.1875 C 33.601562 -10.144531 33.878906 -10.382812 34.359375 -10.90625 C 34.847656 -11.4375 35.128906 -11.703125 35.203125 -11.703125 C 35.273438 -11.703125 35.703125 -11.347656 36.484375 -10.640625 C 36.671875 -10.484375 37.046875 -10.160156 37.609375 -9.671875 C 38.171875 -9.191406 38.5625 -8.859375 38.78125 -8.671875 L 39.90625 -7.71875 Z M 37.046875 -28.828125 C 37.203125 -29.722656 37.28125 -30.1875 37.28125 -30.21875 C 37.238281 -30.21875 36.582031 -30.109375 35.3125 -29.890625 L 33.359375 -29.546875 L 33.296875 -28.265625 C 33.296875 -27.328125 33.351562 -26.859375 33.46875 -26.859375 C 33.582031 -26.859375 34.160156 -26.953125 35.203125 -27.140625 C 36.242188 -27.328125 36.765625 -27.429688 36.765625 -27.453125 C 36.765625 -27.472656 36.859375 -27.929688 37.046875 -28.828125 Z M 38.34375 -35.703125 C 38.34375 -35.773438 38.25 -35.8125 38.0625 -35.8125 C 37.875 -35.8125 37.742188 -35.796875 37.671875 -35.765625 C 37.628906 -35.765625 36.992188 -35.671875 35.765625 -35.484375 C 34.535156 -35.253906 33.828125 -35.125 33.640625 -35.09375 L 33.1875 -34.984375 L 33.1875 -33.53125 C 33.1875 -32.59375 33.242188 -32.125 33.359375 -32.125 C 33.429688 -32.125 34.195312 -32.273438 35.65625 -32.578125 L 37.890625 -32.96875 L 38.0625 -34.203125 C 38.25 -35.054688 38.34375 -35.554688 38.34375 -35.703125 Z M 30.171875 -40.234375 C 30.171875 -42.253906 30.222656 -43.265625 30.328125 -43.265625 C 30.484375 -43.191406 30.988281 -43.0625 31.84375 -42.875 L 33.140625 -42.59375 L 33.140625 -40.515625 C 33.140625 -38.765625 33.175781 -37.851562 33.25 -37.78125 C 33.25 -37.738281 34.289062 -37.890625 36.375 -38.234375 L 39.453125 -38.78125 L 40.515625 -38.28125 C 41.265625 -37.945312 41.640625 -37.722656 41.640625 -37.609375 C 41.640625 -37.492188 41.507812 -36.789062 41.25 -35.5 C 40.988281 -34.21875 40.835938 -33.546875 40.796875 -33.484375 C 40.765625 -33.429688 40.820312 -33.40625 40.96875 -33.40625 C 41.15625 -33.40625 41.804688 -33.519531 42.921875 -33.75 C 44.191406 -33.96875 44.835938 -34.066406 44.859375 -34.046875 C 44.878906 -34.035156 45.054688 -33.644531 45.390625 -32.875 C 45.722656 -32.113281 45.890625 -31.734375 45.890625 -31.734375 C 45.859375 -31.734375 44.925781 -31.566406 43.09375 -31.234375 C 41.269531 -30.972656 40.316406 -30.785156 40.234375 -30.671875 C 40.203125 -30.597656 40.082031 -30.113281 39.875 -29.21875 C 39.664062 -28.320312 39.5625 -27.742188 39.5625 -27.484375 C 39.5625 -27.253906 39.675781 -26.878906 39.90625 -26.359375 C 40.125 -25.765625 40.21875 -25.445312 40.1875 -25.40625 C 40.144531 -25.375 38.242188 -25.019531 34.484375 -24.34375 L 33.359375 -24.171875 L 33.40625 -19.75 C 33.445312 -16.800781 33.476562 -15.304688 33.5 -15.265625 C 33.519531 -15.234375 34.5625 -15.429688 36.625 -15.859375 C 38.695312 -16.296875 39.769531 -16.550781 39.84375 -16.625 C 39.925781 -16.65625 39.925781 -17.679688 39.84375 -19.703125 L 39.796875 -22.828125 L 40.1875 -22.78125 C 40.40625 -22.738281 40.867188 -22.625 41.578125 -22.4375 C 42.210938 -22.289062 42.53125 -22.144531 42.53125 -22 C 42.53125 -21.957031 42.566406 -19.941406 42.640625 -15.953125 C 42.679688 -12.066406 42.722656 -9.566406 42.765625 -8.453125 C 42.796875 -7.253906 42.832031 -5.296875 42.875 -2.578125 L 42.921875 1.734375 L 42.59375 1.671875 C 40.945312 1.492188 40.109375 1.363281 40.078125 1.28125 C 40.035156 1.25 40 -0.179688 39.96875 -3.015625 L 39.84375 -7.390625 L 39.5625 -7.046875 C 39.53125 -6.972656 39.398438 -6.804688 39.171875 -6.546875 C 38.953125 -6.285156 38.785156 -6.097656 38.671875 -5.984375 L 38 -5.3125 L 33.53125 -9.90625 L 33.53125 -7.15625 C 33.53125 -5.289062 33.640625 -3.332031 33.859375 -1.28125 C 34.046875 0.351562 34.160156 1.546875 34.203125 2.296875 L 34.25 2.796875 L 33.140625 3.078125 L 31.90625 3.359375 C 31.644531 2.347656 31.34375 1.226562 31 0 L 30.171875 -3.296875 L 30.5 -3.75 L 30.84375 -4.25 L 30.78125 -6.890625 L 30.671875 -9.515625 L 30.109375 -8.5 C 29.546875 -7.457031 28.695312 -6.015625 27.5625 -4.171875 C 26.425781 -2.328125 25.785156 -1.347656 25.640625 -1.234375 C 25.554688 -1.234375 25.234375 -1.410156 24.671875 -1.765625 C 24.117188 -2.117188 23.710938 -2.40625 23.453125 -2.625 C 23.335938 -2.707031 23.617188 -3.210938 24.296875 -4.140625 C 25.640625 -5.890625 26.941406 -7.832031 28.203125 -9.96875 C 28.953125 -11.34375 29.269531 -12.03125 29.15625 -12.03125 C 29.039062 -12 28.367188 -11.847656 27.140625 -11.578125 L 25.234375 -11.1875 L 24.96875 -11.53125 L 24.6875 -11.859375 L 24.625 -11.3125 C 24.289062 -9.101562 23.710938 -6.878906 22.890625 -4.640625 C 22.554688 -3.785156 21.941406 -2.523438 21.046875 -0.859375 C 20.148438 0.796875 19.609375 1.679688 19.421875 1.796875 C 19.421875 1.796875 19.019531 1.632812 18.21875 1.3125 C 17.414062 1 16.976562 0.804688 16.90625 0.734375 C 16.90625 0.734375 17.164062 0.300781 17.6875 -0.5625 C 18.25 -1.414062 18.734375 -2.253906 19.140625 -3.078125 C 19.441406 -3.710938 19.785156 -4.484375 20.171875 -5.390625 C 20.566406 -6.304688 20.742188 -6.785156 20.703125 -6.828125 C 20.703125 -6.867188 20.273438 -6.738281 19.421875 -6.4375 C 18.742188 -6.175781 18.347656 -6.050781 18.234375 -6.0625 C 18.128906 -6.082031 18.039062 -6.300781 17.96875 -6.71875 C 17.894531 -7.007812 17.671875 -7.863281 17.296875 -9.28125 C 16.921875 -10.707031 16.625 -11.695312 16.40625 -12.25 C 16.175781 -12.882812 16.097656 -13.222656 16.171875 -13.265625 C 16.503906 -13.410156 16.820312 -13.539062 17.125 -13.65625 L 18.015625 -14 L 18.6875 -12.65625 C 19.21875 -11.488281 19.929688 -9.769531 20.828125 -7.5 C 20.898438 -7.3125 21.046875 -7.609375 21.265625 -8.390625 C 21.597656 -9.703125 21.878906 -11.195312 22.109375 -12.875 C 22.253906 -13.84375 22.328125 -15.519531 22.328125 -17.90625 C 22.367188 -20.332031 22.394531 -21.546875 22.40625 -21.546875 C 22.425781 -21.546875 22.738281 -21.453125 23.34375 -21.265625 C 24.457031 -20.929688 25.015625 -20.671875 25.015625 -20.484375 C 25.015625 -20.335938 25.179688 -20.359375 25.515625 -20.546875 C 25.597656 -20.578125 25.726562 -20.648438 25.90625 -20.765625 L 26.578125 -21.265625 L 27.203125 -20.59375 C 28.359375 -19.363281 29.175781 -18.46875 29.65625 -17.90625 C 30.144531 -17.351562 30.367188 -17.054688 30.328125 -17.015625 C 30.253906 -16.972656 29.898438 -16.691406 29.265625 -16.171875 C 28.710938 -15.609375 28.394531 -15.367188 28.3125 -15.453125 C 28.238281 -15.554688 27.660156 -16.335938 26.578125 -17.796875 L 25.015625 -19.984375 L 25.015625 -17.34375 C 25.015625 -15.59375 25 -14.515625 24.96875 -14.109375 C 24.96875 -13.765625 25.003906 -13.59375 25.078125 -13.59375 C 25.222656 -13.632812 26.0625 -13.804688 27.59375 -14.109375 C 29.125 -14.398438 30.019531 -14.582031 30.28125 -14.65625 L 30.734375 -14.71875 L 30.671875 -19.25 C 30.628906 -22.195312 30.597656 -23.679688 30.578125 -23.703125 C 30.566406 -23.722656 29.476562 -23.546875 27.3125 -23.171875 C 25.1875 -22.796875 24.085938 -22.609375 24.015625 -22.609375 C 23.972656 -22.609375 23.726562 -22.988281 23.28125 -23.75 C 22.832031 -24.519531 22.609375 -24.925781 22.609375 -24.96875 C 22.648438 -25 23.957031 -25.238281 26.53125 -25.6875 C 29.144531 -26.132812 30.46875 -26.359375 30.5 -26.359375 C 30.5 -26.398438 30.484375 -26.867188 30.453125 -27.765625 C 30.410156 -28.054688 30.390625 -28.285156 30.390625 -28.453125 C 30.390625 -28.628906 30.378906 -28.753906 30.359375 -28.828125 C 30.335938 -28.898438 30.304688 -28.953125 30.265625 -28.984375 C 30.234375 -29.023438 30.203125 -29.023438 30.171875 -28.984375 C 30.054688 -28.953125 29.363281 -28.84375 28.09375 -28.65625 C 26.632812 -28.394531 25.195312 -28.132812 23.78125 -27.875 C 22.21875 -27.570312 21.414062 -27.421875 21.375 -27.421875 C 21.300781 -27.535156 21.066406 -27.9375 20.671875 -28.625 C 20.285156 -29.3125 20.113281 -29.65625 20.15625 -29.65625 C 20.1875 -29.738281 22.367188 -30.171875 26.703125 -30.953125 C 29.117188 -31.359375 30.328125 -31.582031 30.328125 -31.625 C 30.410156 -31.65625 30.410156 -32.128906 30.328125 -33.046875 C 30.253906 -33.960938 30.203125 -34.421875 30.171875 -34.421875 C 30.128906 -34.421875 29.066406 -34.234375 26.984375 -33.859375 C 24.929688 -33.523438 23.882812 -33.359375 23.84375 -33.359375 C 23.769531 -33.472656 23.507812 -33.875 23.0625 -34.5625 C 22.613281 -35.25 22.390625 -35.613281 22.390625 -35.65625 C 22.390625 -35.6875 23.695312 -35.925781 26.3125 -36.375 L 30.21875 -37.109375 Z M 30.171875 -40.234375 "/></g></g></g><g fill="#000000" fill-opacity="1"><g transform="translate(163.42831, 269.7902)"><g/></g></g><g fill="#000000" fill-opacity="1"><g transform="translate(180.215552, 269.7902)"><g><path d="M 23.625 -15.109375 C 23.695312 -15.441406 23.75 -15.644531 23.78125 -15.71875 C 23.820312 -15.800781 23.898438 -15.820312 24.015625 -15.78125 C 25.578125 -15.375 26.359375 -15.078125 26.359375 -14.890625 C 26.359375 -14.734375 26.300781 -14.34375 26.1875 -13.71875 C 26.039062 -13.113281 25.992188 -12.785156 26.046875 -12.734375 C 26.109375 -12.679688 27.039062 -12.800781 28.84375 -13.09375 C 30.65625 -13.394531 31.710938 -13.65625 32.015625 -13.875 L 32.515625 -14.21875 L 34.3125 -13.9375 C 37.851562 -13.375 39.660156 -13.078125 39.734375 -13.046875 C 39.773438 -13.003906 39.664062 -12.664062 39.40625 -12.03125 C 39.175781 -11.394531 38.976562 -11.054688 38.8125 -11.015625 C 38.644531 -10.984375 37.441406 -10.945312 35.203125 -10.90625 C 33.523438 -10.90625 32.441406 -10.882812 31.953125 -10.84375 C 31.472656 -10.8125 30.578125 -10.703125 29.265625 -10.515625 C 27.472656 -10.179688 26.539062 -10 26.46875 -9.96875 C 26.394531 -9.925781 26.75 -9.515625 27.53125 -8.734375 C 30.1875 -6.304688 32.945312 -3.953125 35.8125 -1.671875 L 37.4375 -0.328125 L 41.140625 0.28125 C 41.878906 0.394531 42.835938 0.539062 44.015625 0.71875 C 45.191406 0.90625 45.816406 1 45.890625 1 C 46.710938 1.113281 47.160156 1.207031 47.234375 1.28125 C 47.304688 1.320312 47.289062 1.660156 47.1875 2.296875 C 47.03125 2.929688 46.929688 3.285156 46.890625 3.359375 C 46.859375 3.429688 45.296875 3.28125 42.203125 2.90625 C 39.921875 2.570312 38.054688 2.3125 36.609375 2.125 C 36.078125 2.09375 35.691406 1.988281 35.453125 1.8125 C 35.210938 1.644531 34.492188 1.0625 33.296875 0.0625 C 30.796875 -2.101562 28.46875 -4.210938 26.3125 -6.265625 C 25.9375 -6.597656 25.609375 -6.90625 25.328125 -7.1875 C 25.046875 -7.46875 24.8125 -7.679688 24.625 -7.828125 C 24.4375 -7.984375 24.34375 -8.0625 24.34375 -8.0625 C 24.3125 -7.988281 24.085938 -7.613281 23.671875 -6.9375 C 22.585938 -5.1875 21.234375 -3.640625 19.609375 -2.296875 C 17.992188 -0.953125 15.898438 0.410156 13.328125 1.796875 C 12.765625 2.085938 11.90625 2.492188 10.75 3.015625 C 9.59375 3.546875 8.976562 3.8125 8.90625 3.8125 C 8.820312 3.8125 8.519531 3.472656 8 2.796875 C 7.476562 2.128906 7.238281 1.773438 7.28125 1.734375 C 7.351562 1.691406 7.613281 1.582031 8.0625 1.40625 C 9.78125 0.769531 11.492188 -0.03125 13.203125 -1 C 16.972656 -3.09375 19.679688 -5.554688 21.328125 -8.390625 C 21.660156 -8.835938 21.789062 -9.082031 21.71875 -9.125 C 21.675781 -9.195312 20.519531 -9.007812 18.25 -8.5625 C 15.375 -8.039062 13.300781 -7.628906 12.03125 -7.328125 C 11.28125 -7.179688 10.867188 -7.109375 10.796875 -7.109375 C 10.648438 -7.109375 10.316406 -7.441406 9.796875 -8.109375 C 9.273438 -8.742188 8.992188 -9.097656 8.953125 -9.171875 C 8.953125 -9.210938 8.96875 -9.242188 9 -9.265625 C 9.039062 -9.285156 9.082031 -9.3125 9.125 -9.34375 C 9.976562 -9.570312 13.429688 -10.242188 19.484375 -11.359375 C 21.710938 -11.804688 22.847656 -12.03125 22.890625 -12.03125 C 22.929688 -12.070312 23.050781 -12.492188 23.25 -13.296875 C 23.457031 -14.097656 23.582031 -14.703125 23.625 -15.109375 Z M 15.5 -41.3125 C 15.988281 -41.675781 16.269531 -41.859375 16.34375 -41.859375 C 16.382812 -41.859375 17.296875 -40.972656 19.078125 -39.203125 C 20.867188 -37.429688 22.007812 -36.285156 22.5 -35.765625 L 22.71875 -35.484375 L 21.9375 -34.8125 C 21.601562 -34.550781 21.175781 -34.253906 20.65625 -33.921875 L 20.265625 -33.578125 L 18.921875 -35.203125 C 17.796875 -36.503906 16.804688 -37.660156 15.953125 -38.671875 C 14.941406 -39.867188 14.472656 -40.523438 14.546875 -40.640625 C 14.617188 -40.710938 14.9375 -40.9375 15.5 -41.3125 Z M 31.28125 -43.046875 C 31.625 -43.566406 31.832031 -43.804688 31.90625 -43.765625 C 31.976562 -43.734375 32.382812 -43.445312 33.125 -42.90625 C 33.875 -42.363281 34.25 -42.054688 34.25 -41.984375 C 34.320312 -41.898438 33.757812 -40.941406 32.5625 -39.109375 C 31.375 -37.285156 30.332031 -35.757812 29.4375 -34.53125 C 29.320312 -34.3125 29.195312 -34.125 29.0625 -33.96875 C 28.9375 -33.820312 28.851562 -33.703125 28.8125 -33.609375 C 28.78125 -33.515625 28.765625 -33.46875 28.765625 -33.46875 C 28.878906 -33.46875 29.960938 -33.671875 32.015625 -34.078125 C 34.179688 -34.453125 35.265625 -34.640625 35.265625 -34.640625 C 36.117188 -33.003906 36.472656 -32.128906 36.328125 -32.015625 C 36.210938 -31.941406 34.882812 -31.695312 32.34375 -31.28125 C 29.21875 -30.6875 27.5625 -30.367188 27.375 -30.328125 L 26.1875 -30.109375 L 26.3125 -28.4375 C 26.34375 -27.3125 26.359375 -26.75 26.359375 -26.75 C 26.398438 -26.71875 26.738281 -26.753906 27.375 -26.859375 C 31.21875 -27.460938 33.15625 -27.765625 33.1875 -27.765625 C 33.257812 -27.648438 33.484375 -27.226562 33.859375 -26.5 C 34.234375 -25.769531 34.421875 -25.40625 34.421875 -25.40625 C 34.378906 -25.375 33.0625 -25.140625 30.46875 -24.703125 C 27.875 -24.273438 26.523438 -24.0625 26.421875 -24.0625 C 26.378906 -24.0625 26.359375 -23.4375 26.359375 -22.1875 C 26.359375 -20.9375 26.40625 -20.289062 26.5 -20.25 C 26.59375 -20.21875 27.664062 -20.351562 29.71875 -20.65625 C 31.695312 -20.914062 33.242188 -21.117188 34.359375 -21.265625 C 35.109375 -21.378906 35.578125 -21.453125 35.765625 -21.484375 C 35.953125 -21.523438 36.15625 -21.640625 36.375 -21.828125 C 36.601562 -22.085938 36.8125 -22.195312 37 -22.15625 C 37.070312 -22.125 38.734375 -21.769531 41.984375 -21.09375 C 43.691406 -20.726562 44.601562 -20.546875 44.71875 -20.546875 C 44.945312 -20.460938 45.097656 -20.398438 45.171875 -20.359375 C 45.242188 -20.328125 45.257812 -20.273438 45.21875 -20.203125 C 45.21875 -20.171875 45.050781 -19.835938 44.71875 -19.203125 C 44.53125 -18.753906 44.398438 -18.484375 44.328125 -18.390625 C 44.253906 -18.296875 44.140625 -18.25 43.984375 -18.25 C 43.722656 -18.25 42.304688 -18.34375 39.734375 -18.53125 L 35.875 -18.8125 L 34.078125 -18.578125 C 29.640625 -18.015625 22.832031 -16.972656 13.65625 -15.453125 C 10.707031 -15.003906 9.175781 -14.796875 9.0625 -14.828125 C 8.988281 -14.898438 8.726562 -15.3125 8.28125 -16.0625 C 7.832031 -16.84375 7.679688 -17.253906 7.828125 -17.296875 C 7.941406 -17.367188 10.296875 -17.738281 14.890625 -18.40625 C 18.691406 -19.007812 21.265625 -19.421875 22.609375 -19.640625 L 23.453125 -19.75 L 23.390625 -21.609375 C 23.390625 -22.835938 23.375 -23.46875 23.34375 -23.5 C 23.300781 -23.5 22.242188 -23.320312 20.171875 -22.96875 C 18.109375 -22.613281 17.054688 -22.457031 17.015625 -22.5 C 16.898438 -22.644531 16.644531 -23.082031 16.25 -23.8125 C 15.863281 -24.539062 15.691406 -24.90625 15.734375 -24.90625 C 15.765625 -24.976562 17.050781 -25.222656 19.59375 -25.640625 C 22.050781 -26.003906 23.300781 -26.207031 23.34375 -26.25 C 23.34375 -26.25 23.34375 -26.320312 23.34375 -26.46875 C 23.34375 -26.625 23.34375 -26.832031 23.34375 -27.09375 C 23.34375 -27.351562 23.320312 -27.628906 23.28125 -27.921875 C 23.28125 -28.671875 23.269531 -29.117188 23.25 -29.265625 C 23.238281 -29.421875 23.175781 -29.5 23.0625 -29.5 C 22.875 -29.5 21.398438 -29.253906 18.640625 -28.765625 C 15.804688 -28.242188 14.367188 -27.984375 14.328125 -27.984375 C 14.253906 -27.984375 13.960938 -28.363281 13.453125 -29.125 C 12.953125 -29.894531 12.722656 -30.296875 12.765625 -30.328125 C 12.796875 -30.410156 15.390625 -30.914062 20.546875 -31.84375 C 23.222656 -32.332031 24.640625 -32.671875 24.796875 -32.859375 C 25.054688 -33.117188 26.015625 -34.550781 27.671875 -37.15625 C 29.335938 -39.769531 30.539062 -41.734375 31.28125 -43.046875 Z M 31.28125 -43.046875 "/></g></g></g><g fill="#000000" fill-opacity="1"><g transform="translate(230.577275, 269.7902)"><g><path d="M 15.390625 -24.90625 C 15.390625 -31.695312 15.332031 -35.09375 15.21875 -35.09375 C 15.070312 -35.050781 14.625 -34.9375 13.875 -34.75 C 13.238281 -34.570312 12.304688 -34.332031 11.078125 -34.03125 C 9.890625 -33.726562 9.273438 -33.539062 9.234375 -33.46875 C 9.191406 -33.425781 9.191406 -32.390625 9.234375 -30.359375 C 9.273438 -28.328125 9.3125 -27.289062 9.34375 -27.25 C 9.382812 -27.21875 9.945312 -27.367188 11.03125 -27.703125 C 12.113281 -28.035156 12.707031 -28.203125 12.8125 -28.203125 C 12.882812 -28.171875 13.132812 -27.816406 13.5625 -27.140625 C 14 -26.472656 14.195312 -26.117188 14.15625 -26.078125 C 14.050781 -26.003906 12.671875 -25.59375 10.015625 -24.84375 C 9.753906 -24.738281 9.585938 -24.65625 9.515625 -24.59375 C 9.441406 -24.539062 9.410156 -23.851562 9.421875 -22.53125 C 9.441406 -21.207031 9.492188 -20.503906 9.578125 -20.421875 C 9.609375 -20.347656 10.222656 -20.519531 11.421875 -20.9375 C 12.648438 -21.34375 13.285156 -21.523438 13.328125 -21.484375 C 13.398438 -21.453125 13.59375 -21.109375 13.90625 -20.453125 C 14.226562 -19.804688 14.390625 -19.441406 14.390625 -19.359375 C 14.390625 -19.285156 13.882812 -19.082031 12.875 -18.75 C 11.675781 -18.34375 10.875 -18.0625 10.46875 -17.90625 L 9.625 -17.6875 L 9.6875 -14.21875 C 9.71875 -11.9375 9.734375 -10.78125 9.734375 -10.75 C 9.773438 -10.707031 11.046875 -11.601562 13.546875 -13.4375 L 15.390625 -14.78125 Z M 12.03125 -36.890625 C 14.082031 -37.410156 15.203125 -37.6875 15.390625 -37.71875 C 15.578125 -37.71875 16.0625 -37.53125 16.84375 -37.15625 L 18.078125 -36.65625 L 18.078125 -22.28125 C 18.078125 -12.539062 18.078125 -7.367188 18.078125 -6.765625 L 18.015625 -5.765625 L 16.671875 -5.375 L 15.453125 -4.984375 L 15.390625 -8.171875 C 15.390625 -10.296875 15.359375 -11.359375 15.296875 -11.359375 C 15.242188 -11.359375 14.695312 -10.945312 13.65625 -10.125 C 11.976562 -8.78125 10.1875 -7.425781 8.28125 -6.0625 C 6.375 -4.707031 5.367188 -4.066406 5.265625 -4.140625 C 5.148438 -4.179688 4.738281 -4.554688 4.03125 -5.265625 L 2.90625 -6.265625 L 4.875 -7.4375 L 6.765625 -8.625 L 6.765625 -11.984375 C 6.734375 -15.742188 6.625 -22.738281 6.4375 -32.96875 L 6.375 -36.9375 L 7.671875 -36.484375 L 8.953125 -36.046875 Z M 36.609375 -22.109375 C 36.609375 -22.179688 36.445312 -22.195312 36.125 -22.15625 C 35.8125 -22.125 35.128906 -22.015625 34.078125 -21.828125 L 32.1875 -21.484375 L 32.1875 -20.03125 C 32.1875 -18.988281 32.210938 -18.445312 32.265625 -18.40625 C 32.316406 -18.375 32.929688 -18.46875 34.109375 -18.6875 C 35.285156 -18.914062 35.894531 -19.066406 35.9375 -19.140625 C 35.96875 -19.179688 36.085938 -19.65625 36.296875 -20.5625 C 36.503906 -21.476562 36.609375 -21.992188 36.609375 -22.109375 Z M 37.78125 -28.09375 C 37.78125 -28.164062 37.6875 -28.203125 37.5 -28.203125 C 37.3125 -28.203125 36.425781 -28.039062 34.84375 -27.71875 C 33.257812 -27.40625 32.390625 -27.234375 32.234375 -27.203125 C 32.117188 -27.160156 32.0625 -26.664062 32.0625 -25.71875 C 32.0625 -24.769531 32.117188 -24.273438 32.234375 -24.234375 C 32.304688 -24.191406 33.144531 -24.300781 34.75 -24.5625 L 37.15625 -24.96875 L 37.4375 -26.46875 C 37.664062 -27.476562 37.78125 -28.019531 37.78125 -28.09375 Z M 29.265625 -38.890625 C 29.265625 -40.953125 29.320312 -41.984375 29.4375 -41.984375 C 29.507812 -41.984375 29.789062 -41.90625 30.28125 -41.75 C 30.425781 -41.71875 30.648438 -41.660156 30.953125 -41.578125 C 31.253906 -41.503906 31.457031 -41.453125 31.5625 -41.421875 L 32.015625 -41.3125 L 32.015625 -38.890625 C 32.015625 -37.285156 32.050781 -36.484375 32.125 -36.484375 C 32.269531 -36.484375 33.425781 -36.707031 35.59375 -37.15625 C 37.832031 -37.644531 39.023438 -37.890625 39.171875 -37.890625 L 39.5625 -37.953125 L 40.234375 -36.71875 C 40.609375 -35.9375 40.742188 -35.523438 40.640625 -35.484375 C 35.191406 -34.367188 32.351562 -33.8125 32.125 -33.8125 C 32.082031 -33.8125 32.0625 -33.164062 32.0625 -31.875 C 32.0625 -30.582031 32.101562 -29.9375 32.1875 -29.9375 C 32.21875 -29.9375 32.398438 -29.976562 32.734375 -30.0625 C 32.960938 -30.132812 34.082031 -30.359375 36.09375 -30.734375 L 38.890625 -31.28125 L 40.078125 -30.78125 C 40.265625 -30.664062 40.457031 -30.570312 40.65625 -30.5 C 40.863281 -30.425781 41.015625 -30.359375 41.109375 -30.296875 C 41.203125 -30.242188 41.25 -30.21875 41.25 -30.21875 C 41.289062 -30.21875 41.140625 -29.492188 40.796875 -28.046875 C 40.460938 -26.585938 40.296875 -25.800781 40.296875 -25.6875 C 40.296875 -25.65625 40.320312 -25.628906 40.375 -25.609375 C 40.4375 -25.585938 40.5625 -25.585938 40.75 -25.609375 C 40.9375 -25.628906 41.164062 -25.664062 41.4375 -25.71875 C 41.71875 -25.769531 42.160156 -25.832031 42.765625 -25.90625 C 44.398438 -26.207031 45.273438 -26.359375 45.390625 -26.359375 C 45.503906 -26.359375 45.726562 -25.96875 46.0625 -25.1875 C 46.4375 -24.4375 46.613281 -24.050781 46.59375 -24.03125 C 46.570312 -24.019531 45.414062 -23.804688 43.125 -23.390625 C 40.832031 -22.984375 39.664062 -22.757812 39.625 -22.71875 C 39.550781 -22.644531 39.390625 -22.007812 39.140625 -20.8125 C 38.898438 -19.625 38.800781 -18.9375 38.84375 -18.75 C 38.84375 -18.5625 38.9375 -18.222656 39.125 -17.734375 L 39.40625 -17.015625 L 35.875 -16.40625 L 32.296875 -15.78125 L 32.296875 -13.828125 C 32.296875 -12.515625 32.3125 -11.84375 32.34375 -11.8125 C 32.382812 -11.738281 32.554688 -11.738281 32.859375 -11.8125 C 33.191406 -11.882812 34.421875 -12.125 36.546875 -12.53125 C 38.671875 -12.945312 39.769531 -13.15625 39.84375 -13.15625 C 40 -13.15625 40.242188 -12.800781 40.578125 -12.09375 C 41.023438 -11.195312 41.15625 -10.75 40.96875 -10.75 C 40.78125 -10.75 38.28125 -10.265625 33.46875 -9.296875 L 32.46875 -9.125 L 32.40625 -6.375 C 32.40625 -4.550781 32.441406 -3.617188 32.515625 -3.578125 C 34.160156 -2.867188 35.019531 -2.5 35.09375 -2.46875 C 36.175781 -2.019531 37.5 -1.476562 39.0625 -0.84375 L 40.515625 -0.21875 L 43.59375 -0.109375 C 45.238281 -0.078125 46.675781 -0.0390625 47.90625 0 L 49.140625 0 L 49.140625 0.609375 C 49.140625 0.910156 49.117188 1.304688 49.078125 1.796875 L 48.96875 2.515625 L 48.078125 2.578125 C 47.367188 2.609375 45.707031 2.625 43.09375 2.625 L 39.0625 2.6875 L 36.546875 1.453125 C 34.722656 0.597656 32.09375 -0.6875 28.65625 -2.40625 C 25.113281 -4.15625 23.320312 -5.03125 23.28125 -5.03125 C 23.28125 -5.03125 22.960938 -4.53125 22.328125 -3.53125 C 21.097656 -1.738281 19.71875 -0.0390625 18.1875 1.5625 C 17.476562 2.3125 17.046875 2.703125 16.890625 2.734375 C 16.742188 2.773438 16.265625 2.515625 15.453125 1.953125 L 14.5 1.34375 L 15.609375 0.21875 C 17.515625 -1.71875 19.117188 -3.75 20.421875 -5.875 C 21.734375 -7.851562 22.742188 -9.847656 23.453125 -11.859375 C 23.785156 -12.753906 23.96875 -13.222656 24 -13.265625 C 24.039062 -13.304688 24.472656 -13.140625 25.296875 -12.765625 L 26.53125 -12.140625 L 26.1875 -11.1875 C 25.894531 -10.476562 25.597656 -9.753906 25.296875 -9.015625 C 24.921875 -8.148438 24.734375 -7.71875 24.734375 -7.71875 C 24.703125 -7.6875 25.445312 -7.269531 26.96875 -6.46875 C 28.5 -5.664062 29.320312 -5.265625 29.4375 -5.265625 C 29.4375 -5.523438 29.4375 -6.390625 29.4375 -7.859375 C 29.4375 -9.335938 29.414062 -10.941406 29.375 -12.671875 C 29.34375 -14.410156 29.328125 -15.285156 29.328125 -15.296875 C 29.328125 -15.316406 28.429688 -15.175781 26.640625 -14.875 C 24.847656 -14.582031 23.875 -14.4375 23.71875 -14.4375 C 23.570312 -14.4375 23.273438 -14.789062 22.828125 -15.5 C 22.460938 -16.25 22.285156 -16.628906 22.296875 -16.640625 C 22.316406 -16.660156 23.445312 -16.878906 25.6875 -17.296875 C 27.96875 -17.671875 29.160156 -17.859375 29.265625 -17.859375 C 29.347656 -17.890625 29.390625 -18.429688 29.390625 -19.484375 C 29.390625 -20.484375 29.367188 -20.984375 29.328125 -20.984375 C 29.253906 -20.984375 27.769531 -20.734375 24.875 -20.234375 C 21.988281 -19.734375 20.503906 -19.460938 20.421875 -19.421875 C 20.347656 -19.378906 20.238281 -19.453125 20.09375 -19.640625 C 19.945312 -19.828125 19.742188 -20.128906 19.484375 -20.546875 L 18.640625 -21.765625 L 19.25 -21.890625 C 20 -22.035156 21.835938 -22.359375 24.765625 -22.859375 C 27.691406 -23.367188 29.191406 -23.625 29.265625 -23.625 C 29.347656 -23.625 29.390625 -24.113281 29.390625 -25.09375 C 29.390625 -26.082031 29.359375 -26.597656 29.296875 -26.640625 C 29.242188 -26.679688 28.03125 -26.476562 25.65625 -26.03125 C 23.289062 -25.582031 22.085938 -25.394531 22.046875 -25.46875 C 21.117188 -26.925781 20.691406 -27.691406 20.765625 -27.765625 C 20.804688 -27.796875 22.800781 -28.1875 26.75 -28.9375 C 28.132812 -29.195312 28.898438 -29.347656 29.046875 -29.390625 C 29.160156 -29.421875 29.222656 -29.507812 29.234375 -29.65625 C 29.253906 -29.8125 29.265625 -30.351562 29.265625 -31.28125 C 29.265625 -32.519531 29.210938 -33.140625 29.109375 -33.140625 C 28.921875 -33.140625 27.707031 -32.914062 25.46875 -32.46875 C 23.257812 -32.050781 22.140625 -31.84375 22.109375 -31.84375 C 22.035156 -31.957031 21.800781 -32.359375 21.40625 -33.046875 C 21.019531 -33.734375 20.828125 -34.097656 20.828125 -34.140625 C 20.828125 -34.179688 20.851562 -34.203125 20.90625 -34.203125 C 20.957031 -34.203125 23.5625 -34.722656 28.71875 -35.765625 L 29.265625 -35.875 Z M 29.265625 -38.890625 "/></g></g></g><g fill="#000000" fill-opacity="1"><g transform="translate(280.93901, 269.7902)"><g/></g></g><g fill="#000000" fill-opacity="1"><g transform="translate(297.726262, 269.7902)"><g><path d="M 23.625 -15.109375 C 23.695312 -15.441406 23.75 -15.644531 23.78125 -15.71875 C 23.820312 -15.800781 23.898438 -15.820312 24.015625 -15.78125 C 25.578125 -15.375 26.359375 -15.078125 26.359375 -14.890625 C 26.359375 -14.734375 26.300781 -14.34375 26.1875 -13.71875 C 26.039062 -13.113281 25.992188 -12.785156 26.046875 -12.734375 C 26.109375 -12.679688 27.039062 -12.800781 28.84375 -13.09375 C 30.65625 -13.394531 31.710938 -13.65625 32.015625 -13.875 L 32.515625 -14.21875 L 34.3125 -13.9375 C 37.851562 -13.375 39.660156 -13.078125 39.734375 -13.046875 C 39.773438 -13.003906 39.664062 -12.664062 39.40625 -12.03125 C 39.175781 -11.394531 38.976562 -11.054688 38.8125 -11.015625 C 38.644531 -10.984375 37.441406 -10.945312 35.203125 -10.90625 C 33.523438 -10.90625 32.441406 -10.882812 31.953125 -10.84375 C 31.472656 -10.8125 30.578125 -10.703125 29.265625 -10.515625 C 27.472656 -10.179688 26.539062 -10 26.46875 -9.96875 C 26.394531 -9.925781 26.75 -9.515625 27.53125 -8.734375 C 30.1875 -6.304688 32.945312 -3.953125 35.8125 -1.671875 L 37.4375 -0.328125 L 41.140625 0.28125 C 41.878906 0.394531 42.835938 0.539062 44.015625 0.71875 C 45.191406 0.90625 45.816406 1 45.890625 1 C 46.710938 1.113281 47.160156 1.207031 47.234375 1.28125 C 47.304688 1.320312 47.289062 1.660156 47.1875 2.296875 C 47.03125 2.929688 46.929688 3.285156 46.890625 3.359375 C 46.859375 3.429688 45.296875 3.28125 42.203125 2.90625 C 39.921875 2.570312 38.054688 2.3125 36.609375 2.125 C 36.078125 2.09375 35.691406 1.988281 35.453125 1.8125 C 35.210938 1.644531 34.492188 1.0625 33.296875 0.0625 C 30.796875 -2.101562 28.46875 -4.210938 26.3125 -6.265625 C 25.9375 -6.597656 25.609375 -6.90625 25.328125 -7.1875 C 25.046875 -7.46875 24.8125 -7.679688 24.625 -7.828125 C 24.4375 -7.984375 24.34375 -8.0625 24.34375 -8.0625 C 24.3125 -7.988281 24.085938 -7.613281 23.671875 -6.9375 C 22.585938 -5.1875 21.234375 -3.640625 19.609375 -2.296875 C 17.992188 -0.953125 15.898438 0.410156 13.328125 1.796875 C 12.765625 2.085938 11.90625 2.492188 10.75 3.015625 C 9.59375 3.546875 8.976562 3.8125 8.90625 3.8125 C 8.820312 3.8125 8.519531 3.472656 8 2.796875 C 7.476562 2.128906 7.238281 1.773438 7.28125 1.734375 C 7.351562 1.691406 7.613281 1.582031 8.0625 1.40625 C 9.78125 0.769531 11.492188 -0.03125 13.203125 -1 C 16.972656 -3.09375 19.679688 -5.554688 21.328125 -8.390625 C 21.660156 -8.835938 21.789062 -9.082031 21.71875 -9.125 C 21.675781 -9.195312 20.519531 -9.007812 18.25 -8.5625 C 15.375 -8.039062 13.300781 -7.628906 12.03125 -7.328125 C 11.28125 -7.179688 10.867188 -7.109375 10.796875 -7.109375 C 10.648438 -7.109375 10.316406 -7.441406 9.796875 -8.109375 C 9.273438 -8.742188 8.992188 -9.097656 8.953125 -9.171875 C 8.953125 -9.210938 8.96875 -9.242188 9 -9.265625 C 9.039062 -9.285156 9.082031 -9.3125 9.125 -9.34375 C 9.976562 -9.570312 13.429688 -10.242188 19.484375 -11.359375 C 21.710938 -11.804688 22.847656 -12.03125 22.890625 -12.03125 C 22.929688 -12.070312 23.050781 -12.492188 23.25 -13.296875 C 23.457031 -14.097656 23.582031 -14.703125 23.625 -15.109375 Z M 15.5 -41.3125 C 15.988281 -41.675781 16.269531 -41.859375 16.34375 -41.859375 C 16.382812 -41.859375 17.296875 -40.972656 19.078125 -39.203125 C 20.867188 -37.429688 22.007812 -36.285156 22.5 -35.765625 L 22.71875 -35.484375 L 21.9375 -34.8125 C 21.601562 -34.550781 21.175781 -34.253906 20.65625 -33.921875 L 20.265625 -33.578125 L 18.921875 -35.203125 C 17.796875 -36.503906 16.804688 -37.660156 15.953125 -38.671875 C 14.941406 -39.867188 14.472656 -40.523438 14.546875 -40.640625 C 14.617188 -40.710938 14.9375 -40.9375 15.5 -41.3125 Z M 31.28125 -43.046875 C 31.625 -43.566406 31.832031 -43.804688 31.90625 -43.765625 C 31.976562 -43.734375 32.382812 -43.445312 33.125 -42.90625 C 33.875 -42.363281 34.25 -42.054688 34.25 -41.984375 C 34.320312 -41.898438 33.757812 -40.941406 32.5625 -39.109375 C 31.375 -37.285156 30.332031 -35.757812 29.4375 -34.53125 C 29.320312 -34.3125 29.195312 -34.125 29.0625 -33.96875 C 28.9375 -33.820312 28.851562 -33.703125 28.8125 -33.609375 C 28.78125 -33.515625 28.765625 -33.46875 28.765625 -33.46875 C 28.878906 -33.46875 29.960938 -33.671875 32.015625 -34.078125 C 34.179688 -34.453125 35.265625 -34.640625 35.265625 -34.640625 C 36.117188 -33.003906 36.472656 -32.128906 36.328125 -32.015625 C 36.210938 -31.941406 34.882812 -31.695312 32.34375 -31.28125 C 29.21875 -30.6875 27.5625 -30.367188 27.375 -30.328125 L 26.1875 -30.109375 L 26.3125 -28.4375 C 26.34375 -27.3125 26.359375 -26.75 26.359375 -26.75 C 26.398438 -26.71875 26.738281 -26.753906 27.375 -26.859375 C 31.21875 -27.460938 33.15625 -27.765625 33.1875 -27.765625 C 33.257812 -27.648438 33.484375 -27.226562 33.859375 -26.5 C 34.234375 -25.769531 34.421875 -25.40625 34.421875 -25.40625 C 34.378906 -25.375 33.0625 -25.140625 30.46875 -24.703125 C 27.875 -24.273438 26.523438 -24.0625 26.421875 -24.0625 C 26.378906 -24.0625 26.359375 -23.4375 26.359375 -22.1875 C 26.359375 -20.9375 26.40625 -20.289062 26.5 -20.25 C 26.59375 -20.21875 27.664062 -20.351562 29.71875 -20.65625 C 31.695312 -20.914062 33.242188 -21.117188 34.359375 -21.265625 C 35.109375 -21.378906 35.578125 -21.453125 35.765625 -21.484375 C 35.953125 -21.523438 36.15625 -21.640625 36.375 -21.828125 C 36.601562 -22.085938 36.8125 -22.195312 37 -22.15625 C 37.070312 -22.125 38.734375 -21.769531 41.984375 -21.09375 C 43.691406 -20.726562 44.601562 -20.546875 44.71875 -20.546875 C 44.945312 -20.460938 45.097656 -20.398438 45.171875 -20.359375 C 45.242188 -20.328125 45.257812 -20.273438 45.21875 -20.203125 C 45.21875 -20.171875 45.050781 -19.835938 44.71875 -19.203125 C 44.53125 -18.753906 44.398438 -18.484375 44.328125 -18.390625 C 44.253906 -18.296875 44.140625 -18.25 43.984375 -18.25 C 43.722656 -18.25 42.304688 -18.34375 39.734375 -18.53125 L 35.875 -18.8125 L 34.078125 -18.578125 C 29.640625 -18.015625 22.832031 -16.972656 13.65625 -15.453125 C 10.707031 -15.003906 9.175781 -14.796875 9.0625 -14.828125 C 8.988281 -14.898438 8.726562 -15.3125 8.28125 -16.0625 C 7.832031 -16.84375 7.679688 -17.253906 7.828125 -17.296875 C 7.941406 -17.367188 10.296875 -17.738281 14.890625 -18.40625 C 18.691406 -19.007812 21.265625 -19.421875 22.609375 -19.640625 L 23.453125 -19.75 L 23.390625 -21.609375 C 23.390625 -22.835938 23.375 -23.46875 23.34375 -23.5 C 23.300781 -23.5 22.242188 -23.320312 20.171875 -22.96875 C 18.109375 -22.613281 17.054688 -22.457031 17.015625 -22.5 C 16.898438 -22.644531 16.644531 -23.082031 16.25 -23.8125 C 15.863281 -24.539062 15.691406 -24.90625 15.734375 -24.90625 C 15.765625 -24.976562 17.050781 -25.222656 19.59375 -25.640625 C 22.050781 -26.003906 23.300781 -26.207031 23.34375 -26.25 C 23.34375 -26.25 23.34375 -26.320312 23.34375 -26.46875 C 23.34375 -26.625 23.34375 -26.832031 23.34375 -27.09375 C 23.34375 -27.351562 23.320312 -27.628906 23.28125 -27.921875 C 23.28125 -28.671875 23.269531 -29.117188 23.25 -29.265625 C 23.238281 -29.421875 23.175781 -29.5 23.0625 -29.5 C 22.875 -29.5 21.398438 -29.253906 18.640625 -28.765625 C 15.804688 -28.242188 14.367188 -27.984375 14.328125 -27.984375 C 14.253906 -27.984375 13.960938 -28.363281 13.453125 -29.125 C 12.953125 -29.894531 12.722656 -30.296875 12.765625 -30.328125 C 12.796875 -30.410156 15.390625 -30.914062 20.546875 -31.84375 C 23.222656 -32.332031 24.640625 -32.671875 24.796875 -32.859375 C 25.054688 -33.117188 26.015625 -34.550781 27.671875 -37.15625 C 29.335938 -39.769531 30.539062 -41.734375 31.28125 -43.046875 Z M 31.28125 -43.046875 "/></g></g></g><g fill="#000000" fill-opacity="1"><g transform="translate(348.087974, 269.7902)"><g><path d="M 24.015625 -21.9375 L 24.015625 -25.6875 L 23.625 -25.6875 C 23.28125 -25.65625 21.65625 -25.414062 18.75 -24.96875 C 15.800781 -24.550781 14.304688 -24.285156 14.265625 -24.171875 C 14.234375 -23.878906 14.550781 -21.976562 15.21875 -18.46875 C 15.375 -17.757812 15.46875 -17.328125 15.5 -17.171875 C 15.539062 -17.023438 15.617188 -16.972656 15.734375 -17.015625 C 15.835938 -17.054688 17.066406 -17.222656 19.421875 -17.515625 C 19.941406 -17.585938 20.523438 -17.660156 21.171875 -17.734375 C 21.828125 -17.816406 22.34375 -17.875 22.71875 -17.90625 C 23.09375 -17.945312 23.316406 -17.984375 23.390625 -18.015625 L 23.953125 -18.078125 Z M 23.953125 -36.046875 C 23.921875 -36.191406 23.894531 -36.320312 23.875 -36.4375 C 23.851562 -36.550781 23.832031 -36.644531 23.8125 -36.71875 C 23.789062 -36.789062 23.78125 -36.828125 23.78125 -36.828125 C 22.882812 -36.640625 20.425781 -36.265625 16.40625 -35.703125 C 14.082031 -35.367188 12.90625 -35.164062 12.875 -35.09375 C 12.832031 -35.050781 12.90625 -34.226562 13.09375 -32.625 C 13.164062 -32.144531 13.25 -31.445312 13.34375 -30.53125 C 13.4375 -29.613281 13.503906 -29.023438 13.546875 -28.765625 C 13.660156 -27.722656 13.753906 -27.164062 13.828125 -27.09375 C 13.898438 -27.019531 15.503906 -27.207031 18.640625 -27.65625 C 21.992188 -28.132812 23.691406 -28.375 23.734375 -28.375 L 24.015625 -28.484375 L 24.015625 -31.796875 C 24.015625 -33.992188 23.992188 -35.410156 23.953125 -36.046875 Z M 37.78125 -38.34375 C 37.8125 -38.675781 37.789062 -38.84375 37.71875 -38.84375 C 37.613281 -38.875 37.054688 -38.816406 36.046875 -38.671875 C 34.367188 -38.410156 32.554688 -38.128906 30.609375 -37.828125 L 26.75 -37.21875 L 26.75 -33.078125 C 26.75 -30.273438 26.804688 -28.875 26.921875 -28.875 C 27.066406 -28.875 28.222656 -29.046875 30.390625 -29.390625 C 32.671875 -29.679688 33.8125 -29.828125 33.8125 -29.828125 C 33.84375 -29.796875 33.929688 -29.582031 34.078125 -29.1875 C 34.234375 -28.789062 34.382812 -28.394531 34.53125 -28 C 34.675781 -27.613281 34.738281 -27.421875 34.71875 -27.421875 C 34.707031 -27.421875 33.378906 -27.21875 30.734375 -26.8125 L 26.8125 -26.1875 L 26.75 -22.328125 L 26.75 -18.40625 L 27.25 -18.53125 C 31.882812 -19.082031 34.425781 -19.414062 34.875 -19.53125 C 35.019531 -19.570312 35.144531 -19.832031 35.25 -20.3125 C 35.363281 -20.800781 35.609375 -22.085938 35.984375 -24.171875 C 36.992188 -29.847656 37.59375 -34.570312 37.78125 -38.34375 Z M 38.28125 -41.703125 C 38.394531 -41.734375 38.914062 -41.507812 39.84375 -41.03125 C 40.59375 -40.65625 40.988281 -40.410156 41.03125 -40.296875 C 41.132812 -39.960938 40.890625 -37.3125 40.296875 -32.34375 C 39.921875 -29.4375 39.363281 -26.097656 38.625 -22.328125 C 38.539062 -21.921875 38.429688 -21.425781 38.296875 -20.84375 C 38.171875 -20.269531 38.070312 -19.8125 38 -19.46875 C 37.925781 -19.132812 37.890625 -18.914062 37.890625 -18.8125 C 37.773438 -18.394531 37.800781 -18.035156 37.96875 -17.734375 C 38.144531 -17.441406 38.210938 -17.265625 38.171875 -17.203125 C 38.128906 -17.148438 35.5 -16.804688 30.28125 -16.171875 L 26.921875 -15.78125 L 26.859375 -11.8125 C 26.859375 -9.082031 26.988281 -6.242188 27.25 -3.296875 C 27.550781 -0.128906 27.722656 1.546875 27.765625 1.734375 L 27.8125 2.234375 L 26.859375 2.515625 C 26.117188 2.671875 25.710938 2.75 25.640625 2.75 C 25.523438 2.75 25.113281 1.253906 24.40625 -1.734375 L 23.234375 -6.265625 L 23.671875 -6.828125 L 24.125 -7.328125 L 24.0625 -11.359375 C 23.988281 -14.085938 23.894531 -15.453125 23.78125 -15.453125 C 23.675781 -15.453125 21.867188 -15.242188 18.359375 -14.828125 C 14.847656 -14.421875 13.078125 -14.21875 13.046875 -14.21875 C 12.890625 -14.21875 12.515625 -15.988281 11.921875 -19.53125 C 11.515625 -21.8125 10.953125 -25.429688 10.234375 -30.390625 C 9.523438 -35.347656 9.210938 -37.847656 9.296875 -37.890625 C 9.328125 -37.929688 9.773438 -37.910156 10.640625 -37.828125 L 11.921875 -37.71875 L 18.25 -38.671875 C 31.300781 -40.578125 37.976562 -41.585938 38.28125 -41.703125 Z M 38.28125 -41.703125 "/></g></g></g><g fill="#000000" fill-opacity="1"><g transform="translate(398.50567, 269.7902)"><g/></g></g><g fill="#000000" fill-opacity="1"><g transform="translate(415.292923, 269.7902)"><g><path d="M 15.5 -35.984375 C 18.257812 -35.984375 20.453125 -35.195312 22.078125 -33.625 C 23.703125 -32.0625 24.8125 -29.9375 25.40625 -27.25 C 25.519531 -26.695312 25.578125 -26.382812 25.578125 -26.3125 C 25.578125 -26.3125 25.203125 -26.253906 24.453125 -26.140625 C 23.742188 -26.023438 23.335938 -25.96875 23.234375 -25.96875 C 23.117188 -25.96875 23.003906 -26.320312 22.890625 -27.03125 C 21.953125 -31.320312 19.523438 -33.46875 15.609375 -33.46875 C 14.710938 -33.46875 13.828125 -33.335938 12.953125 -33.078125 C 12.078125 -32.816406 11.296875 -32.429688 10.609375 -31.921875 C 9.921875 -31.421875 9.359375 -30.785156 8.921875 -30.015625 C 8.492188 -29.253906 8.28125 -28.390625 8.28125 -27.421875 C 8.28125 -26.117188 8.53125 -25.019531 9.03125 -24.125 C 9.539062 -23.226562 10.375 -22.40625 11.53125 -21.65625 C 12.125 -21.25 13.390625 -20.578125 15.328125 -19.640625 C 17.085938 -18.785156 18.546875 -18.007812 19.703125 -17.3125 C 20.859375 -16.625 21.734375 -16.019531 22.328125 -15.5 C 23.671875 -14.382812 24.601562 -12.875 25.125 -10.96875 C 25.351562 -10.300781 25.46875 -9.460938 25.46875 -8.453125 C 25.46875 -7.066406 25.195312 -5.84375 24.65625 -4.78125 C 24.113281 -3.71875 23.375 -2.84375 22.4375 -2.15625 C 21.507812 -1.46875 20.445312 -0.945312 19.25 -0.59375 C 18.0625 -0.238281 16.796875 -0.0625 15.453125 -0.0625 L 14.5 -0.0625 C 11.925781 -0.164062 9.6875 -0.816406 7.78125 -2.015625 C 5.875 -3.210938 4.082031 -5.0625 2.40625 -7.5625 C 1.914062 -8.269531 1.671875 -8.660156 1.671875 -8.734375 C 1.753906 -8.804688 1.882812 -8.90625 2.0625 -9.03125 C 2.25 -9.164062 2.453125 -9.296875 2.671875 -9.421875 C 2.898438 -9.554688 3.109375 -9.679688 3.296875 -9.796875 C 3.484375 -9.910156 3.597656 -9.96875 3.640625 -9.96875 C 3.671875 -9.96875 3.910156 -9.628906 4.359375 -8.953125 C 5.671875 -6.941406 7.15625 -5.359375 8.8125 -4.203125 C 10.476562 -3.046875 12.5625 -2.46875 15.0625 -2.46875 C 15.800781 -2.46875 16.46875 -2.472656 17.0625 -2.484375 C 17.664062 -2.503906 18.238281 -2.597656 18.78125 -2.765625 C 19.320312 -2.929688 19.832031 -3.179688 20.3125 -3.515625 C 20.800781 -3.859375 21.285156 -4.347656 21.765625 -4.984375 C 22.472656 -5.878906 22.851562 -6.671875 22.90625 -7.359375 C 22.96875 -8.046875 23 -8.46875 23 -8.625 C 23 -9.707031 22.726562 -10.738281 22.1875 -11.71875 C 21.644531 -12.707031 20.945312 -13.519531 20.09375 -14.15625 C 19.601562 -14.53125 18.921875 -14.957031 18.046875 -15.4375 C 17.171875 -15.925781 16.097656 -16.488281 14.828125 -17.125 C 13.742188 -17.644531 12.847656 -18.09375 12.140625 -18.46875 C 11.429688 -18.84375 10.875 -19.160156 10.46875 -19.421875 C 8.894531 -20.429688 7.71875 -21.519531 6.9375 -22.6875 C 6.15625 -23.863281 5.765625 -25.441406 5.765625 -27.421875 C 5.765625 -28.835938 5.988281 -30.015625 6.4375 -30.953125 C 7.289062 -32.554688 8.566406 -33.796875 10.265625 -34.671875 C 11.960938 -35.546875 13.707031 -35.984375 15.5 -35.984375 Z M 15.5 -35.984375 "/></g></g></g><g fill="#000000" fill-opacity="1"><g transform="translate(443.215701, 269.7902)"><g><path d="M 16.5625 -26.921875 C 17.425781 -26.921875 18.390625 -26.710938 19.453125 -26.296875 C 20.515625 -25.890625 21.414062 -25.035156 22.15625 -23.734375 C 23.019531 -22.503906 23.550781 -21.21875 23.75 -19.875 C 23.957031 -18.53125 24.0625 -17.128906 24.0625 -15.671875 C 24.0625 -14.253906 23.863281 -12.628906 23.46875 -10.796875 C 23.082031 -8.972656 22.476562 -7.25 21.65625 -5.625 C 20.832031 -4 19.785156 -2.632812 18.515625 -1.53125 C 17.253906 -0.4375 15.75 0.109375 14 0.109375 C 12.539062 0.109375 11.238281 -0.296875 10.09375 -1.109375 C 8.957031 -1.929688 8.019531 -2.960938 7.28125 -4.203125 L 6.71875 -5.15625 L 6.65625 -4.75 C 6.65625 -4.53125 6.628906 -4.140625 6.578125 -3.578125 C 6.523438 -3.023438 6.457031 -2.300781 6.375 -1.40625 C 6.300781 -0.582031 6.21875 0.515625 6.125 1.890625 C 6.03125 3.273438 5.929688 4.941406 5.828125 6.890625 C 5.785156 7.515625 5.753906 8.003906 5.734375 8.359375 C 5.710938 8.722656 5.703125 8.941406 5.703125 9.015625 L 5.703125 9.171875 L 4.75 9.125 C 4.007812 9.125 3.582031 9.101562 3.46875 9.0625 L 3.078125 9.015625 L 3.140625 8.34375 C 3.171875 8.039062 3.234375 7.160156 3.328125 5.703125 C 3.421875 4.253906 3.5625 2.203125 3.75 -0.453125 C 3.894531 -2.503906 4.070312 -5.140625 4.28125 -8.359375 C 4.488281 -11.585938 4.738281 -15.40625 5.03125 -19.8125 C 5.21875 -22.195312 5.332031 -23.953125 5.375 -25.078125 C 5.40625 -25.742188 5.441406 -26.320312 5.484375 -26.8125 L 5.59375 -26.8125 C 5.664062 -26.8125 5.804688 -26.800781 6.015625 -26.78125 C 6.222656 -26.757812 6.515625 -26.734375 6.890625 -26.703125 C 7.597656 -26.617188 7.957031 -26.566406 7.96875 -26.546875 C 7.988281 -26.535156 8 -26.472656 8 -26.359375 C 8.039062 -26.210938 8.050781 -25.960938 8.03125 -25.609375 C 8.007812 -25.253906 7.984375 -24.773438 7.953125 -24.171875 C 7.910156 -23.097656 7.851562 -22.222656 7.78125 -21.546875 L 7.78125 -21.15625 C 7.8125 -21.195312 7.875 -21.269531 7.96875 -21.375 C 8.0625 -21.488281 8.203125 -21.675781 8.390625 -21.9375 C 8.910156 -22.570312 9.457031 -23.1875 10.03125 -23.78125 C 10.613281 -24.382812 11.25 -24.914062 11.9375 -25.375 C 12.632812 -25.84375 13.363281 -26.21875 14.125 -26.5 C 14.894531 -26.78125 15.707031 -26.921875 16.5625 -26.921875 Z M 16.671875 -24.171875 L 16.5625 -24.171875 C 15.738281 -24.171875 14.984375 -24.003906 14.296875 -23.671875 C 13.609375 -23.335938 12.960938 -22.910156 12.359375 -22.390625 C 11.765625 -21.867188 11.21875 -21.289062 10.71875 -20.65625 C 10.21875 -20.019531 9.757812 -19.40625 9.34375 -18.8125 C 8.414062 -17.46875 7.800781 -16.515625 7.5 -15.953125 C 7.457031 -15.878906 7.414062 -15.632812 7.375 -15.21875 C 7.34375 -14.8125 7.304688 -14.347656 7.265625 -13.828125 C 7.234375 -13.304688 7.195312 -12.8125 7.15625 -12.34375 C 7.125 -11.875 7.109375 -11.546875 7.109375 -11.359375 L 7.109375 -11.1875 C 7.109375 -10.59375 7.570312 -9.304688 8.5 -7.328125 C 9.25 -5.722656 10.039062 -4.546875 10.875 -3.796875 C 11.71875 -3.054688 12.703125 -2.664062 13.828125 -2.625 L 14 -2.625 C 14.882812 -2.625 15.679688 -2.847656 16.390625 -3.296875 C 17.109375 -3.742188 17.734375 -4.320312 18.265625 -5.03125 C 18.804688 -5.738281 19.273438 -6.503906 19.671875 -7.328125 C 20.066406 -8.148438 20.375 -8.914062 20.59375 -9.625 C 21.113281 -11.53125 21.375 -13.472656 21.375 -15.453125 L 21.375 -16.515625 C 21.34375 -17.253906 21.257812 -18.0625 21.125 -18.9375 C 21 -19.820312 20.765625 -20.65625 20.421875 -21.4375 C 20.085938 -22.21875 19.625 -22.867188 19.03125 -23.390625 C 18.4375 -23.910156 17.648438 -24.171875 16.671875 -24.171875 Z M 16.671875 -24.171875 "/></g></g></g><g fill="#000000" fill-opacity="1"><g transform="translate(469.515683, 269.7902)"><g><path d="M 14 -26.984375 C 15.675781 -26.984375 17.210938 -26.5625 18.609375 -25.71875 C 20.003906 -24.875 20.960938 -23.613281 21.484375 -21.9375 C 21.785156 -21.007812 21.945312 -20.160156 21.96875 -19.390625 C 21.988281 -18.628906 21.976562 -17.816406 21.9375 -16.953125 C 21.9375 -16.398438 21.925781 -15.757812 21.90625 -15.03125 C 21.894531 -14.300781 21.867188 -13.507812 21.828125 -12.65625 C 21.453125 -4.332031 21.226562 -0.078125 21.15625 0.109375 C 21.082031 0.179688 20.671875 0.21875 19.921875 0.21875 L 18.75 0.171875 L 18.8125 -1.734375 L 18.8125 -3.8125 L 18.75 -3.8125 C 18.675781 -3.726562 18.5625 -3.617188 18.40625 -3.484375 C 18.257812 -3.359375 18.054688 -3.203125 17.796875 -3.015625 C 16.492188 -2.046875 15.140625 -1.3125 13.734375 -0.8125 C 12.335938 -0.3125 10.816406 -0.0625 9.171875 -0.0625 L 8.5625 -0.0625 C 6.625 -0.132812 5.175781 -0.703125 4.21875 -1.765625 C 3.269531 -2.828125 2.703125 -4.289062 2.515625 -6.15625 C 2.515625 -7.71875 2.726562 -9.054688 3.15625 -10.171875 C 3.59375 -11.296875 4.484375 -12.328125 5.828125 -13.265625 C 6.867188 -14.046875 8.226562 -14.628906 9.90625 -15.015625 C 11.582031 -15.410156 13.207031 -15.609375 14.78125 -15.609375 L 15.5625 -15.609375 C 16.382812 -15.578125 17.09375 -15.519531 17.6875 -15.4375 C 18.28125 -15.363281 18.785156 -15.289062 19.203125 -15.21875 L 19.53125 -15.109375 L 19.484375 -17.34375 C 19.484375 -18.351562 19.414062 -19.285156 19.28125 -20.140625 C 19.144531 -21.003906 18.878906 -21.742188 18.484375 -22.359375 C 18.097656 -22.972656 17.550781 -23.457031 16.84375 -23.8125 C 16.132812 -24.164062 15.222656 -24.34375 14.109375 -24.34375 C 13.023438 -24.34375 12.257812 -24.269531 11.8125 -24.125 C 9.601562 -23.53125 7.679688 -22.054688 6.046875 -19.703125 C 5.859375 -19.441406 5.734375 -19.253906 5.671875 -19.140625 C 5.617188 -19.023438 5.578125 -18.929688 5.546875 -18.859375 C 5.503906 -18.828125 5.484375 -18.828125 5.484375 -18.859375 C 5.335938 -18.859375 5.019531 -18.988281 4.53125 -19.25 C 3.820312 -19.550781 3.457031 -19.726562 3.4375 -19.78125 C 3.425781 -19.84375 3.421875 -19.890625 3.421875 -19.921875 C 3.898438 -20.859375 4.507812 -21.753906 5.25 -22.609375 C 6 -23.472656 6.835938 -24.21875 7.765625 -24.84375 C 8.703125 -25.476562 9.703125 -25.992188 10.765625 -26.390625 C 11.835938 -26.785156 12.914062 -26.984375 14 -26.984375 Z M 16.953125 -13.09375 C 16.546875 -13.132812 16.15625 -13.160156 15.78125 -13.171875 C 15.40625 -13.191406 15.03125 -13.203125 14.65625 -13.203125 C 13.6875 -13.203125 12.640625 -13.109375 11.515625 -12.921875 C 10.398438 -12.742188 9.367188 -12.421875 8.421875 -11.953125 C 7.472656 -11.484375 6.679688 -10.859375 6.046875 -10.078125 C 5.410156 -9.296875 5.09375 -8.304688 5.09375 -7.109375 L 5.09375 -6.328125 C 5.164062 -5.316406 5.359375 -4.539062 5.671875 -4 C 5.992188 -3.457031 6.488281 -3.039062 7.15625 -2.75 C 7.425781 -2.59375 8.140625 -2.515625 9.296875 -2.515625 C 11.046875 -2.515625 12.640625 -2.859375 14.078125 -3.546875 C 15.515625 -4.242188 16.828125 -5.1875 18.015625 -6.375 C 18.691406 -7.050781 19.03125 -7.460938 19.03125 -7.609375 C 19.101562 -7.796875 19.160156 -8.691406 19.203125 -10.296875 L 19.3125 -12.765625 L 18.640625 -12.875 C 18.335938 -12.90625 18.046875 -12.941406 17.765625 -12.984375 C 17.484375 -13.023438 17.210938 -13.0625 16.953125 -13.09375 Z M 16.953125 -13.09375 "/></g></g></g></svg>